G04 #@! TF.FileFunction,Copper,L2,Bot,Signal*
%FSLAX46Y46*%
G04 Gerber Fmt 4.6, Leading zero omitted, Abs format (unit mm)*
G04 Created by KiCad (PCBNEW 4.0.1-stable) date Tuesday, April 19, 2016 'PMt' 04:38:34 PM*
%MOMM*%
G01*
G04 APERTURE LIST*
%ADD10C,0.100000*%
%ADD11C,2.300000*%
%ADD12C,2.000000*%
%ADD13R,1.727200X2.032000*%
%ADD14O,1.727200X2.032000*%
%ADD15C,0.508000*%
%ADD16C,0.254000*%
G04 APERTURE END LIST*
D10*
D11*
X157407000Y-96162500D03*
D12*
X149907000Y-83662500D03*
D11*
X159907000Y-93662500D03*
X152407000Y-93662500D03*
X144907000Y-93662500D03*
X147407000Y-96162500D03*
D12*
X154907000Y-83662500D03*
D13*
X156210000Y-118110000D03*
D14*
X153670000Y-118110000D03*
X151130000Y-118110000D03*
X148590000Y-118110000D03*
D15*
X161290000Y-106045000D03*
X150939500Y-109728000D03*
X157797500Y-107950000D03*
D16*
G36*
X161850000Y-116332796D02*
X161618957Y-115773628D01*
X161089161Y-115242907D01*
X160396595Y-114955328D01*
X159646695Y-114954674D01*
X158953628Y-115241043D01*
X158422907Y-115770839D01*
X158135328Y-116463405D01*
X158134674Y-117213305D01*
X158421043Y-117906372D01*
X158950839Y-118437093D01*
X159511740Y-118670000D01*
X157721040Y-118670000D01*
X157721040Y-117094000D01*
X157676762Y-116858683D01*
X157537690Y-116642559D01*
X157325490Y-116497569D01*
X157073600Y-116446560D01*
X155346400Y-116446560D01*
X155111083Y-116490838D01*
X154894959Y-116629910D01*
X154749969Y-116842110D01*
X154741600Y-116883439D01*
X154729670Y-116865585D01*
X154243489Y-116540729D01*
X153670000Y-116426655D01*
X153096511Y-116540729D01*
X152610330Y-116865585D01*
X152400000Y-117180366D01*
X152189670Y-116865585D01*
X151703489Y-116540729D01*
X151130000Y-116426655D01*
X150556511Y-116540729D01*
X150070330Y-116865585D01*
X149863539Y-117175069D01*
X149492036Y-116759268D01*
X148964791Y-116505291D01*
X148949026Y-116502642D01*
X148717000Y-116623783D01*
X148717000Y-117983000D01*
X148737000Y-117983000D01*
X148737000Y-118237000D01*
X148717000Y-118237000D01*
X148717000Y-118257000D01*
X148463000Y-118257000D01*
X148463000Y-118237000D01*
X147249076Y-118237000D01*
X147104816Y-118471913D01*
X147174106Y-118670000D01*
X145287204Y-118670000D01*
X145846372Y-118438957D01*
X146377093Y-117909161D01*
X146443976Y-117748087D01*
X147104816Y-117748087D01*
X147249076Y-117983000D01*
X148463000Y-117983000D01*
X148463000Y-116623783D01*
X148230974Y-116502642D01*
X148215209Y-116505291D01*
X147687964Y-116759268D01*
X147298046Y-117195680D01*
X147104816Y-117748087D01*
X146443976Y-117748087D01*
X146664672Y-117216595D01*
X146665326Y-116466695D01*
X146378957Y-115773628D01*
X145849161Y-115242907D01*
X145156595Y-114955328D01*
X144406695Y-114954674D01*
X143713628Y-115241043D01*
X143182907Y-115770839D01*
X142950000Y-116331740D01*
X142950000Y-94016001D01*
X143121691Y-94016001D01*
X143392868Y-94672300D01*
X143894559Y-95174867D01*
X144550384Y-95447189D01*
X145260501Y-95447809D01*
X145876723Y-95193192D01*
X145622311Y-95805884D01*
X145621691Y-96516001D01*
X145892868Y-97172300D01*
X146394559Y-97674867D01*
X147050384Y-97947189D01*
X147760501Y-97947809D01*
X148416800Y-97676632D01*
X148919367Y-97174941D01*
X149191689Y-96519116D01*
X149191691Y-96516001D01*
X155621691Y-96516001D01*
X155892868Y-97172300D01*
X156394559Y-97674867D01*
X157050384Y-97947189D01*
X157760501Y-97947809D01*
X158416800Y-97676632D01*
X158919367Y-97174941D01*
X159191689Y-96519116D01*
X159192309Y-95808999D01*
X158937692Y-95192777D01*
X159550384Y-95447189D01*
X160260501Y-95447809D01*
X160916800Y-95176632D01*
X161419367Y-94674941D01*
X161691689Y-94019116D01*
X161692309Y-93308999D01*
X161421132Y-92652700D01*
X160919441Y-92150133D01*
X160263616Y-91877811D01*
X159553499Y-91877191D01*
X158897200Y-92148368D01*
X158394633Y-92650059D01*
X158122311Y-93305884D01*
X158121691Y-94016001D01*
X158376308Y-94632223D01*
X157763616Y-94377811D01*
X157053499Y-94377191D01*
X156397200Y-94648368D01*
X155894633Y-95150059D01*
X155622311Y-95805884D01*
X155621691Y-96516001D01*
X149191691Y-96516001D01*
X149192309Y-95808999D01*
X148921132Y-95152700D01*
X148419441Y-94650133D01*
X147763616Y-94377811D01*
X147053499Y-94377191D01*
X146437277Y-94631808D01*
X146691689Y-94019116D01*
X146691691Y-94016001D01*
X150621691Y-94016001D01*
X150892868Y-94672300D01*
X151394559Y-95174867D01*
X152050384Y-95447189D01*
X152760501Y-95447809D01*
X153416800Y-95176632D01*
X153919367Y-94674941D01*
X154191689Y-94019116D01*
X154192309Y-93308999D01*
X153921132Y-92652700D01*
X153419441Y-92150133D01*
X152763616Y-91877811D01*
X152053499Y-91877191D01*
X151397200Y-92148368D01*
X150894633Y-92650059D01*
X150622311Y-93305884D01*
X150621691Y-94016001D01*
X146691691Y-94016001D01*
X146692309Y-93308999D01*
X146421132Y-92652700D01*
X145919441Y-92150133D01*
X145263616Y-91877811D01*
X144553499Y-91877191D01*
X143897200Y-92148368D01*
X143394633Y-92650059D01*
X143122311Y-93305884D01*
X143121691Y-94016001D01*
X142950000Y-94016001D01*
X142950000Y-89025903D01*
X143071682Y-89025903D01*
X143350455Y-89700586D01*
X143866199Y-90217230D01*
X144540395Y-90497181D01*
X145270403Y-90497818D01*
X145945086Y-90219045D01*
X146461730Y-89703301D01*
X146741681Y-89029105D01*
X146741683Y-89025903D01*
X158071682Y-89025903D01*
X158350455Y-89700586D01*
X158866199Y-90217230D01*
X159540395Y-90497181D01*
X160270403Y-90497818D01*
X160945086Y-90219045D01*
X161461730Y-89703301D01*
X161741681Y-89029105D01*
X161742318Y-88299097D01*
X161463545Y-87624414D01*
X160947801Y-87107770D01*
X160273605Y-86827819D01*
X159543597Y-86827182D01*
X158868914Y-87105955D01*
X158352270Y-87621699D01*
X158072319Y-88295895D01*
X158071682Y-89025903D01*
X146741683Y-89025903D01*
X146742318Y-88299097D01*
X146463545Y-87624414D01*
X145947801Y-87107770D01*
X145273605Y-86827819D01*
X144543597Y-86827182D01*
X143868914Y-87105955D01*
X143352270Y-87621699D01*
X143072319Y-88295895D01*
X143071682Y-89025903D01*
X142950000Y-89025903D01*
X142950000Y-83986295D01*
X148271716Y-83986295D01*
X148520106Y-84587443D01*
X148979637Y-85047778D01*
X149580352Y-85297216D01*
X150230795Y-85297784D01*
X150831943Y-85049394D01*
X151292278Y-84589863D01*
X151541716Y-83989148D01*
X151541718Y-83986295D01*
X153271716Y-83986295D01*
X153520106Y-84587443D01*
X153979637Y-85047778D01*
X154580352Y-85297216D01*
X155230795Y-85297784D01*
X155831943Y-85049394D01*
X156292278Y-84589863D01*
X156541716Y-83989148D01*
X156542284Y-83338705D01*
X156293894Y-82737557D01*
X155834363Y-82277222D01*
X155233648Y-82027784D01*
X154583205Y-82027216D01*
X153982057Y-82275606D01*
X153521722Y-82735137D01*
X153272284Y-83335852D01*
X153271716Y-83986295D01*
X151541718Y-83986295D01*
X151542284Y-83338705D01*
X151293894Y-82737557D01*
X150834363Y-82277222D01*
X150233648Y-82027784D01*
X149583205Y-82027216D01*
X148982057Y-82275606D01*
X148521722Y-82735137D01*
X148272284Y-83335852D01*
X148271716Y-83986295D01*
X142950000Y-83986295D01*
X142950000Y-81990000D01*
X161850000Y-81990000D01*
X161850000Y-116332796D01*
X161850000Y-116332796D01*
G37*
X161850000Y-116332796D02*
X161618957Y-115773628D01*
X161089161Y-115242907D01*
X160396595Y-114955328D01*
X159646695Y-114954674D01*
X158953628Y-115241043D01*
X158422907Y-115770839D01*
X158135328Y-116463405D01*
X158134674Y-117213305D01*
X158421043Y-117906372D01*
X158950839Y-118437093D01*
X159511740Y-118670000D01*
X157721040Y-118670000D01*
X157721040Y-117094000D01*
X157676762Y-116858683D01*
X157537690Y-116642559D01*
X157325490Y-116497569D01*
X157073600Y-116446560D01*
X155346400Y-116446560D01*
X155111083Y-116490838D01*
X154894959Y-116629910D01*
X154749969Y-116842110D01*
X154741600Y-116883439D01*
X154729670Y-116865585D01*
X154243489Y-116540729D01*
X153670000Y-116426655D01*
X153096511Y-116540729D01*
X152610330Y-116865585D01*
X152400000Y-117180366D01*
X152189670Y-116865585D01*
X151703489Y-116540729D01*
X151130000Y-116426655D01*
X150556511Y-116540729D01*
X150070330Y-116865585D01*
X149863539Y-117175069D01*
X149492036Y-116759268D01*
X148964791Y-116505291D01*
X148949026Y-116502642D01*
X148717000Y-116623783D01*
X148717000Y-117983000D01*
X148737000Y-117983000D01*
X148737000Y-118237000D01*
X148717000Y-118237000D01*
X148717000Y-118257000D01*
X148463000Y-118257000D01*
X148463000Y-118237000D01*
X147249076Y-118237000D01*
X147104816Y-118471913D01*
X147174106Y-118670000D01*
X145287204Y-118670000D01*
X145846372Y-118438957D01*
X146377093Y-117909161D01*
X146443976Y-117748087D01*
X147104816Y-117748087D01*
X147249076Y-117983000D01*
X148463000Y-117983000D01*
X148463000Y-116623783D01*
X148230974Y-116502642D01*
X148215209Y-116505291D01*
X147687964Y-116759268D01*
X147298046Y-117195680D01*
X147104816Y-117748087D01*
X146443976Y-117748087D01*
X146664672Y-117216595D01*
X146665326Y-116466695D01*
X146378957Y-115773628D01*
X145849161Y-115242907D01*
X145156595Y-114955328D01*
X144406695Y-114954674D01*
X143713628Y-115241043D01*
X143182907Y-115770839D01*
X142950000Y-116331740D01*
X142950000Y-94016001D01*
X143121691Y-94016001D01*
X143392868Y-94672300D01*
X143894559Y-95174867D01*
X144550384Y-95447189D01*
X145260501Y-95447809D01*
X145876723Y-95193192D01*
X145622311Y-95805884D01*
X145621691Y-96516001D01*
X145892868Y-97172300D01*
X146394559Y-97674867D01*
X147050384Y-97947189D01*
X147760501Y-97947809D01*
X148416800Y-97676632D01*
X148919367Y-97174941D01*
X149191689Y-96519116D01*
X149191691Y-96516001D01*
X155621691Y-96516001D01*
X155892868Y-97172300D01*
X156394559Y-97674867D01*
X157050384Y-97947189D01*
X157760501Y-97947809D01*
X158416800Y-97676632D01*
X158919367Y-97174941D01*
X159191689Y-96519116D01*
X159192309Y-95808999D01*
X158937692Y-95192777D01*
X159550384Y-95447189D01*
X160260501Y-95447809D01*
X160916800Y-95176632D01*
X161419367Y-94674941D01*
X161691689Y-94019116D01*
X161692309Y-93308999D01*
X161421132Y-92652700D01*
X160919441Y-92150133D01*
X160263616Y-91877811D01*
X159553499Y-91877191D01*
X158897200Y-92148368D01*
X158394633Y-92650059D01*
X158122311Y-93305884D01*
X158121691Y-94016001D01*
X158376308Y-94632223D01*
X157763616Y-94377811D01*
X157053499Y-94377191D01*
X156397200Y-94648368D01*
X155894633Y-95150059D01*
X155622311Y-95805884D01*
X155621691Y-96516001D01*
X149191691Y-96516001D01*
X149192309Y-95808999D01*
X148921132Y-95152700D01*
X148419441Y-94650133D01*
X147763616Y-94377811D01*
X147053499Y-94377191D01*
X146437277Y-94631808D01*
X146691689Y-94019116D01*
X146691691Y-94016001D01*
X150621691Y-94016001D01*
X150892868Y-94672300D01*
X151394559Y-95174867D01*
X152050384Y-95447189D01*
X152760501Y-95447809D01*
X153416800Y-95176632D01*
X153919367Y-94674941D01*
X154191689Y-94019116D01*
X154192309Y-93308999D01*
X153921132Y-92652700D01*
X153419441Y-92150133D01*
X152763616Y-91877811D01*
X152053499Y-91877191D01*
X151397200Y-92148368D01*
X150894633Y-92650059D01*
X150622311Y-93305884D01*
X150621691Y-94016001D01*
X146691691Y-94016001D01*
X146692309Y-93308999D01*
X146421132Y-92652700D01*
X145919441Y-92150133D01*
X145263616Y-91877811D01*
X144553499Y-91877191D01*
X143897200Y-92148368D01*
X143394633Y-92650059D01*
X143122311Y-93305884D01*
X143121691Y-94016001D01*
X142950000Y-94016001D01*
X142950000Y-89025903D01*
X143071682Y-89025903D01*
X143350455Y-89700586D01*
X143866199Y-90217230D01*
X144540395Y-90497181D01*
X145270403Y-90497818D01*
X145945086Y-90219045D01*
X146461730Y-89703301D01*
X146741681Y-89029105D01*
X146741683Y-89025903D01*
X158071682Y-89025903D01*
X158350455Y-89700586D01*
X158866199Y-90217230D01*
X159540395Y-90497181D01*
X160270403Y-90497818D01*
X160945086Y-90219045D01*
X161461730Y-89703301D01*
X161741681Y-89029105D01*
X161742318Y-88299097D01*
X161463545Y-87624414D01*
X160947801Y-87107770D01*
X160273605Y-86827819D01*
X159543597Y-86827182D01*
X158868914Y-87105955D01*
X158352270Y-87621699D01*
X158072319Y-88295895D01*
X158071682Y-89025903D01*
X146741683Y-89025903D01*
X146742318Y-88299097D01*
X146463545Y-87624414D01*
X145947801Y-87107770D01*
X145273605Y-86827819D01*
X144543597Y-86827182D01*
X143868914Y-87105955D01*
X143352270Y-87621699D01*
X143072319Y-88295895D01*
X143071682Y-89025903D01*
X142950000Y-89025903D01*
X142950000Y-83986295D01*
X148271716Y-83986295D01*
X148520106Y-84587443D01*
X148979637Y-85047778D01*
X149580352Y-85297216D01*
X150230795Y-85297784D01*
X150831943Y-85049394D01*
X151292278Y-84589863D01*
X151541716Y-83989148D01*
X151541718Y-83986295D01*
X153271716Y-83986295D01*
X153520106Y-84587443D01*
X153979637Y-85047778D01*
X154580352Y-85297216D01*
X155230795Y-85297784D01*
X155831943Y-85049394D01*
X156292278Y-84589863D01*
X156541716Y-83989148D01*
X156542284Y-83338705D01*
X156293894Y-82737557D01*
X155834363Y-82277222D01*
X155233648Y-82027784D01*
X154583205Y-82027216D01*
X153982057Y-82275606D01*
X153521722Y-82735137D01*
X153272284Y-83335852D01*
X153271716Y-83986295D01*
X151541718Y-83986295D01*
X151542284Y-83338705D01*
X151293894Y-82737557D01*
X150834363Y-82277222D01*
X150233648Y-82027784D01*
X149583205Y-82027216D01*
X148982057Y-82275606D01*
X148521722Y-82735137D01*
X148272284Y-83335852D01*
X148271716Y-83986295D01*
X142950000Y-83986295D01*
X142950000Y-81990000D01*
X161850000Y-81990000D01*
X161850000Y-116332796D01*
M02*
