G04 #@! TF.FileFunction,Legend,Bot*
%FSLAX46Y46*%
G04 Gerber Fmt 4.6, Leading zero omitted, Abs format (unit mm)*
G04 Created by KiCad (PCBNEW 4.0.1-stable) date Tuesday, April 19, 2016 'PMt' 04:38:34 PM*
%MOMM*%
G01*
G04 APERTURE LIST*
%ADD10C,0.100000*%
%ADD11C,0.150000*%
%ADD12C,0.254000*%
%ADD13C,0.152400*%
%ADD14C,0.304800*%
%ADD15C,2.700000*%
%ADD16C,2.400000*%
%ADD17R,2.127200X2.432000*%
%ADD18O,2.127200X2.432000*%
G04 APERTURE END LIST*
D10*
D11*
X151772620Y-85501480D02*
X157673040Y-91401900D01*
X157373320Y-90101420D02*
X156872940Y-89601040D01*
X152773380Y-88501220D02*
X153073100Y-88800940D01*
X154772360Y-91500960D02*
X154574240Y-91300300D01*
X155773120Y-86502240D02*
X155572460Y-86301580D01*
X156273500Y-87000080D02*
X156672280Y-87401400D01*
X155272740Y-87000080D02*
X154973020Y-86700360D01*
X154271980Y-87000080D02*
X153774140Y-86502240D01*
X152273000Y-85001100D02*
X152072340Y-84800440D01*
X151772620Y-85501480D02*
X151472900Y-85201760D01*
X151772620Y-86502240D02*
X151272240Y-86001860D01*
X150274020Y-87000080D02*
X150172420Y-86901020D01*
X151272240Y-87000080D02*
X150873460Y-86601300D01*
X148772880Y-86502240D02*
X148473160Y-86199980D01*
X148272500Y-87000080D02*
X147972780Y-86700360D01*
X156273500Y-92001340D02*
X156573220Y-92301060D01*
X154772360Y-90500200D02*
X154472640Y-90200480D01*
X156872940Y-94500700D02*
X157073600Y-94701360D01*
X154772360Y-92501720D02*
X154271980Y-92001340D01*
X156273500Y-95001080D02*
X156474160Y-95201740D01*
X154271980Y-93002100D02*
X153774140Y-92501720D01*
X154271980Y-94000320D02*
X153873200Y-93601540D01*
X148772880Y-89501980D02*
X148272500Y-89001600D01*
X148272500Y-89999820D02*
X147972780Y-89700100D01*
X148772880Y-93499940D02*
X148374100Y-93101160D01*
X146773900Y-90500200D02*
X146372580Y-90101420D01*
X148272500Y-94000320D02*
X149273260Y-95001080D01*
X148772880Y-93499940D02*
X149773640Y-94500700D01*
X146773900Y-90500200D02*
X150771860Y-94500700D01*
X147271740Y-89999820D02*
X150771860Y-93499940D01*
X148272500Y-89999820D02*
X151272240Y-93002100D01*
X154271980Y-94000320D02*
X154772360Y-94500700D01*
X154271980Y-93002100D02*
X156273500Y-95001080D01*
X154772360Y-92501720D02*
X156773880Y-94500700D01*
X154772360Y-91500960D02*
X156273500Y-93002100D01*
X154772360Y-90500200D02*
X156273500Y-92001340D01*
X152273000Y-85001100D02*
X153273760Y-86001860D01*
X155773120Y-86502240D02*
X156273500Y-87000080D01*
X155272740Y-87000080D02*
X156273500Y-88000840D01*
X157274260Y-89999820D02*
X158272480Y-91000580D01*
X154271980Y-87000080D02*
X156773880Y-89501980D01*
X151772620Y-86502240D02*
X156773880Y-91500960D01*
X148772880Y-89501980D02*
X150274020Y-91000580D01*
X148772880Y-88501220D02*
X150274020Y-89999820D01*
X151272240Y-87000080D02*
X152773380Y-88501220D01*
X148272500Y-87000080D02*
X150771860Y-89501980D01*
X148772880Y-86502240D02*
X151272240Y-89001600D01*
X150274020Y-87000080D02*
X151772620Y-88501220D01*
X147472400Y-98800920D02*
X147472400Y-99400360D01*
X148973540Y-97701100D02*
X148173440Y-101000560D01*
X148173440Y-101000560D02*
X147972780Y-101000560D01*
X147972780Y-101000560D02*
X147574000Y-99601020D01*
X147574000Y-99601020D02*
X147472400Y-99601020D01*
X147472400Y-99601020D02*
X146972020Y-101000560D01*
X146972020Y-101000560D02*
X146872960Y-101000560D01*
X146872960Y-101000560D02*
X146072860Y-97800160D01*
X146072860Y-97800160D02*
X146273520Y-97800160D01*
X146273520Y-97800160D02*
X146972020Y-100401120D01*
X146972020Y-100401120D02*
X147373340Y-98600260D01*
X147373340Y-98600260D02*
X147574000Y-98600260D01*
X147574000Y-98600260D02*
X148173440Y-100401120D01*
X148173440Y-100401120D02*
X148772880Y-97701100D01*
X148772880Y-97701100D02*
X148973540Y-97701100D01*
X151673560Y-99202240D02*
X150172420Y-99202240D01*
X150172420Y-99202240D02*
X150172420Y-99400360D01*
X150172420Y-99400360D02*
X151571960Y-99400360D01*
X150073360Y-97800160D02*
X150073360Y-101000560D01*
X150073360Y-101000560D02*
X149872700Y-101000560D01*
X149872700Y-101000560D02*
X149872700Y-97800160D01*
X149872700Y-97800160D02*
X150073360Y-97800160D01*
X151571960Y-97701100D02*
X151673560Y-97701100D01*
X151772620Y-97701100D02*
X151772620Y-101000560D01*
X151772620Y-101000560D02*
X151571960Y-101000560D01*
X151571960Y-101000560D02*
X151571960Y-97701100D01*
X152671780Y-98000820D02*
X152773380Y-97901760D01*
X152773380Y-97901760D02*
X153172160Y-97800160D01*
X153172160Y-97800160D02*
X153672540Y-97701100D01*
X153672540Y-97701100D02*
X154373580Y-97901760D01*
X154373580Y-97901760D02*
X154673300Y-98201480D01*
X154673300Y-98201480D02*
X154772360Y-98701860D01*
X154772360Y-98701860D02*
X154673300Y-99100640D01*
X154673300Y-99100640D02*
X154271980Y-99400360D01*
X154271980Y-99400360D02*
X153774140Y-99601020D01*
X153774140Y-99601020D02*
X153372820Y-99700080D01*
X153372820Y-99700080D02*
X153172160Y-99900740D01*
X153172160Y-99900740D02*
X153073100Y-100200460D01*
X153073100Y-100200460D02*
X153172160Y-100500180D01*
X153172160Y-100500180D02*
X153471880Y-100700840D01*
X153471880Y-100700840D02*
X153873200Y-100700840D01*
X153873200Y-100700840D02*
X154373580Y-100700840D01*
X154373580Y-100700840D02*
X154673300Y-100601780D01*
X154673300Y-100601780D02*
X154873960Y-100700840D01*
X154873960Y-100700840D02*
X154574240Y-100901500D01*
X154574240Y-100901500D02*
X153972260Y-101000560D01*
X153972260Y-101000560D02*
X153372820Y-101000560D01*
X153372820Y-101000560D02*
X152974040Y-100700840D01*
X152974040Y-100700840D02*
X152872440Y-100200460D01*
X152872440Y-100200460D02*
X152872440Y-99900740D01*
X152872440Y-99900740D02*
X153073100Y-99601020D01*
X153073100Y-99601020D02*
X153573480Y-99400360D01*
X153573480Y-99400360D02*
X154073860Y-99202240D01*
X154073860Y-99202240D02*
X154472640Y-98899980D01*
X154472640Y-98899980D02*
X154574240Y-98600260D01*
X154574240Y-98600260D02*
X154373580Y-98300540D01*
X154373580Y-98300540D02*
X153972260Y-98000820D01*
X153972260Y-98000820D02*
X153372820Y-98000820D01*
X153372820Y-98000820D02*
X152974040Y-98099880D01*
X152974040Y-98099880D02*
X152671780Y-98201480D01*
X156773880Y-98099880D02*
X157073600Y-98099880D01*
X157073600Y-98099880D02*
X157472380Y-98402140D01*
X157472380Y-98402140D02*
X157573980Y-98899980D01*
X157573980Y-98899980D02*
X157573980Y-99700080D01*
X157573980Y-99700080D02*
X157472380Y-100200460D01*
X157472380Y-100200460D02*
X157274260Y-100500180D01*
X157274260Y-100500180D02*
X156872940Y-100700840D01*
X156872940Y-100700840D02*
X156474160Y-100700840D01*
X156474160Y-100700840D02*
X156072840Y-100401120D01*
X156072840Y-100401120D02*
X155872180Y-99700080D01*
X155872180Y-99700080D02*
X155872180Y-98899980D01*
X155872180Y-98899980D02*
X156072840Y-98501200D01*
X156072840Y-98501200D02*
X156273500Y-98300540D01*
X156273500Y-98300540D02*
X156672280Y-98099880D01*
X156773880Y-97800160D02*
X157172660Y-97901760D01*
X157172660Y-97901760D02*
X157472380Y-98000820D01*
X157472380Y-98000820D02*
X157772100Y-98501200D01*
X157772100Y-98501200D02*
X157873700Y-99100640D01*
X157873700Y-99100640D02*
X157772100Y-100200460D01*
X157772100Y-100200460D02*
X157472380Y-100799900D01*
X157472380Y-100799900D02*
X156872940Y-101000560D01*
X156872940Y-101000560D02*
X156171900Y-100901500D01*
X156171900Y-100901500D02*
X155773120Y-100302060D01*
X155773120Y-100302060D02*
X155674060Y-99601020D01*
X155674060Y-99601020D02*
X155674060Y-98899980D01*
X155674060Y-98899980D02*
X155872180Y-98300540D01*
X155872180Y-98300540D02*
X156273500Y-97901760D01*
X156273500Y-97901760D02*
X156773880Y-97800160D01*
X153372820Y-92702380D02*
X153873200Y-92301060D01*
X153873200Y-92301060D02*
X154271980Y-91800680D01*
X154271980Y-91800680D02*
X154472640Y-91300300D01*
X154472640Y-91300300D02*
X154472640Y-90601800D01*
X154472640Y-90601800D02*
X154371040Y-90002360D01*
X154371040Y-90002360D02*
X153972260Y-89400380D01*
X153972260Y-89400380D02*
X153172160Y-88800940D01*
X153172160Y-88800940D02*
X152372060Y-88701880D01*
X152372060Y-88701880D02*
X151671020Y-88701880D01*
X151671020Y-88701880D02*
X150972520Y-89202260D01*
X150972520Y-89202260D02*
X150472140Y-89900760D01*
X150472140Y-89900760D02*
X150271480Y-90500200D01*
X150271480Y-90500200D02*
X150271480Y-91201240D01*
X150271480Y-91201240D02*
X150571200Y-92001340D01*
X150571200Y-92001340D02*
X151071580Y-92501720D01*
X151071580Y-92501720D02*
X151371300Y-92702380D01*
X151371300Y-92801440D02*
X150622000Y-95051880D01*
X150622000Y-95051880D02*
X149771100Y-94602300D01*
X149771100Y-94602300D02*
X148473160Y-95600520D01*
X148473160Y-95600520D02*
X147472400Y-94500700D01*
X147472400Y-94500700D02*
X148371560Y-93200220D01*
X148371560Y-93200220D02*
X147871180Y-91902280D01*
X147871180Y-91902280D02*
X147871180Y-91701620D01*
X147871180Y-91701620D02*
X146270980Y-91401900D01*
X146270980Y-91401900D02*
X146270980Y-89900760D01*
X146270980Y-89900760D02*
X147871180Y-89702640D01*
X147871180Y-89702640D02*
X148473160Y-88300560D01*
X148473160Y-88300560D02*
X147571460Y-86901020D01*
X147571460Y-86901020D02*
X148671280Y-85900260D01*
X148671280Y-85900260D02*
X149971760Y-86801960D01*
X149971760Y-86801960D02*
X151173180Y-86301580D01*
X151173180Y-86301580D02*
X151571960Y-84701380D01*
X151571960Y-84701380D02*
X153073100Y-84701380D01*
X153073100Y-84701380D02*
X153372820Y-86301580D01*
X153372820Y-86301580D02*
X154673300Y-86801960D01*
X154673300Y-86801960D02*
X156072840Y-85801200D01*
X156072840Y-85801200D02*
X157172660Y-86901020D01*
X157172660Y-86901020D02*
X156171900Y-88201500D01*
X156171900Y-88201500D02*
X156872940Y-89702640D01*
X156872940Y-89702640D02*
X158473140Y-89900760D01*
X158473140Y-89900760D02*
X158572200Y-91300300D01*
X158572200Y-91300300D02*
X156972000Y-91602560D01*
X156972000Y-91602560D02*
X156372560Y-93200220D01*
X156372560Y-93200220D02*
X157271720Y-94500700D01*
X157271720Y-94500700D02*
X156270960Y-95600520D01*
X156270960Y-95600520D02*
X154973020Y-94701360D01*
X154973020Y-94701360D02*
X154271980Y-95001080D01*
X154271980Y-95001080D02*
X153372820Y-92702380D01*
X154940000Y-119380000D02*
X147320000Y-119380000D01*
X154940000Y-116840000D02*
X147320000Y-116840000D01*
X157760000Y-116560000D02*
X156210000Y-116560000D01*
X147320000Y-119380000D02*
X147320000Y-116840000D01*
X154940000Y-116840000D02*
X154940000Y-119380000D01*
X156210000Y-119660000D02*
X157760000Y-119660000D01*
X157760000Y-119660000D02*
X157760000Y-116560000D01*
D12*
G36*
X162433000Y-119253000D02*
X142367000Y-119253000D01*
X142367000Y-102997000D01*
X162433000Y-102997000D01*
X162433000Y-119253000D01*
X162433000Y-119253000D01*
G37*
X162433000Y-119253000D02*
X142367000Y-119253000D01*
X142367000Y-102997000D01*
X162433000Y-102997000D01*
X162433000Y-119253000D01*
%LPC*%
D13*
X160627785Y-112321219D02*
X160718500Y-113046933D01*
X160785022Y-113192076D01*
X160893880Y-113288838D01*
X161045070Y-113337219D01*
X161141832Y-113337219D01*
X160125832Y-113337219D02*
X160216547Y-113288838D01*
X160258880Y-113240457D01*
X160295166Y-113143695D01*
X160258880Y-112853410D01*
X160198404Y-112756648D01*
X160143975Y-112708267D01*
X160041166Y-112659886D01*
X159896024Y-112659886D01*
X159805309Y-112708267D01*
X159762976Y-112756648D01*
X159726690Y-112853410D01*
X159762976Y-113143695D01*
X159823452Y-113240457D01*
X159877881Y-113288838D01*
X159980690Y-113337219D01*
X160125832Y-113337219D01*
X159351737Y-113337219D02*
X159267071Y-112659886D01*
X159291261Y-112853410D02*
X159230785Y-112756648D01*
X159176356Y-112708267D01*
X159073547Y-112659886D01*
X158976786Y-112659886D01*
X158287357Y-113337219D02*
X158160357Y-112321219D01*
X158281310Y-113288838D02*
X158384119Y-113337219D01*
X158577642Y-113337219D01*
X158668357Y-113288838D01*
X158710690Y-113240457D01*
X158746976Y-113143695D01*
X158710690Y-112853410D01*
X158650214Y-112756648D01*
X158595785Y-112708267D01*
X158492976Y-112659886D01*
X158299453Y-112659886D01*
X158208738Y-112708267D01*
X157803547Y-113337219D02*
X157718881Y-112659886D01*
X157676547Y-112321219D02*
X157730976Y-112369600D01*
X157688643Y-112417981D01*
X157634214Y-112369600D01*
X157676547Y-112321219D01*
X157688643Y-112417981D01*
X156545642Y-113337219D02*
X156418642Y-112321219D01*
X156031595Y-112321219D01*
X155940881Y-112369600D01*
X155898548Y-112417981D01*
X155862262Y-112514743D01*
X155880405Y-112659886D01*
X155940881Y-112756648D01*
X155995310Y-112805029D01*
X156098119Y-112853410D01*
X156485166Y-112853410D01*
X155094214Y-113337219D02*
X155027691Y-112805029D01*
X155063976Y-112708267D01*
X155154691Y-112659886D01*
X155348214Y-112659886D01*
X155451023Y-112708267D01*
X155088167Y-113288838D02*
X155190976Y-113337219D01*
X155432880Y-113337219D01*
X155523595Y-113288838D01*
X155559880Y-113192076D01*
X155547785Y-113095314D01*
X155487309Y-112998552D01*
X155384499Y-112950171D01*
X155142595Y-112950171D01*
X155039786Y-112901790D01*
X154610404Y-113337219D02*
X154483404Y-112321219D01*
X154465261Y-112950171D02*
X154223357Y-113337219D01*
X154138691Y-112659886D02*
X154574119Y-113046933D01*
X153394834Y-113288838D02*
X153497643Y-113337219D01*
X153691166Y-113337219D01*
X153781881Y-113288838D01*
X153818166Y-113192076D01*
X153769786Y-112805029D01*
X153709309Y-112708267D01*
X153606500Y-112659886D01*
X153412977Y-112659886D01*
X153322262Y-112708267D01*
X153285977Y-112805029D01*
X153298072Y-112901790D01*
X153793976Y-112998552D01*
X152929167Y-112659886D02*
X152771928Y-113337219D01*
X152445358Y-112659886D02*
X152771928Y-113337219D01*
X152898929Y-113579124D01*
X152953357Y-113627505D01*
X153056167Y-113675886D01*
X152094595Y-112950171D02*
X151320500Y-112950171D01*
X150304500Y-113337219D02*
X150582690Y-112853410D01*
X150885071Y-113337219D02*
X150758071Y-112321219D01*
X150371024Y-112321219D01*
X150280310Y-112369600D01*
X150237977Y-112417981D01*
X150201691Y-112514743D01*
X150219834Y-112659886D01*
X150280310Y-112756648D01*
X150334739Y-112805029D01*
X150437548Y-112853410D01*
X150824595Y-112853410D01*
X149723928Y-113337219D02*
X149814643Y-113288838D01*
X149856976Y-113240457D01*
X149893262Y-113143695D01*
X149856976Y-112853410D01*
X149796500Y-112756648D01*
X149742071Y-112708267D01*
X149639262Y-112659886D01*
X149494120Y-112659886D01*
X149403405Y-112708267D01*
X149361072Y-112756648D01*
X149324786Y-112853410D01*
X149361072Y-113143695D01*
X149421548Y-113240457D01*
X149475977Y-113288838D01*
X149578786Y-113337219D01*
X149723928Y-113337219D01*
X148514405Y-113337219D02*
X148387405Y-112321219D01*
X148508358Y-113288838D02*
X148611167Y-113337219D01*
X148804690Y-113337219D01*
X148895405Y-113288838D01*
X148937738Y-113240457D01*
X148974024Y-113143695D01*
X148937738Y-112853410D01*
X148877262Y-112756648D01*
X148822833Y-112708267D01*
X148720024Y-112659886D01*
X148526501Y-112659886D01*
X148435786Y-112708267D01*
X148030595Y-113337219D02*
X147945929Y-112659886D01*
X147970119Y-112853410D02*
X147909643Y-112756648D01*
X147855214Y-112708267D01*
X147752405Y-112659886D01*
X147655644Y-112659886D01*
X147401643Y-113337219D02*
X147316977Y-112659886D01*
X147274643Y-112321219D02*
X147329072Y-112369600D01*
X147286739Y-112417981D01*
X147232310Y-112369600D01*
X147274643Y-112321219D01*
X147286739Y-112417981D01*
X146397739Y-112659886D02*
X146500548Y-113482362D01*
X146561025Y-113579124D01*
X146615453Y-113627505D01*
X146718262Y-113675886D01*
X146863405Y-113675886D01*
X146954119Y-113627505D01*
X146476358Y-113288838D02*
X146579167Y-113337219D01*
X146772690Y-113337219D01*
X146863405Y-113288838D01*
X146905738Y-113240457D01*
X146942024Y-113143695D01*
X146905738Y-112853410D01*
X146845262Y-112756648D01*
X146790833Y-112708267D01*
X146688024Y-112659886D01*
X146494501Y-112659886D01*
X146403786Y-112708267D01*
X145478501Y-112659886D02*
X145563167Y-113337219D01*
X145913929Y-112659886D02*
X145980452Y-113192076D01*
X145944167Y-113288838D01*
X145853452Y-113337219D01*
X145708310Y-113337219D01*
X145605501Y-113288838D01*
X145551072Y-113240457D01*
X144686263Y-113288838D02*
X144789072Y-113337219D01*
X144982595Y-113337219D01*
X145073310Y-113288838D01*
X145109595Y-113192076D01*
X145061215Y-112805029D01*
X145000738Y-112708267D01*
X144897929Y-112659886D01*
X144704406Y-112659886D01*
X144613691Y-112708267D01*
X144577406Y-112805029D01*
X144589501Y-112901790D01*
X145085405Y-112998552D01*
X144220596Y-112659886D02*
X143688406Y-112659886D01*
X144305262Y-113337219D01*
X143773072Y-113337219D01*
X157277405Y-113992781D02*
X157222976Y-113944400D01*
X157120166Y-113896019D01*
X156878262Y-113896019D01*
X156787548Y-113944400D01*
X156745215Y-113992781D01*
X156708929Y-114089543D01*
X156721024Y-114186305D01*
X156787548Y-114331448D01*
X157440690Y-114912019D01*
X156811738Y-114912019D01*
X156055785Y-113896019D02*
X155959024Y-113896019D01*
X155868310Y-113944400D01*
X155825977Y-113992781D01*
X155789691Y-114089543D01*
X155765500Y-114283067D01*
X155795738Y-114524971D01*
X155868310Y-114718495D01*
X155928786Y-114815257D01*
X155983215Y-114863638D01*
X156086024Y-114912019D01*
X156182785Y-114912019D01*
X156273500Y-114863638D01*
X156315833Y-114815257D01*
X156352119Y-114718495D01*
X156376309Y-114524971D01*
X156346071Y-114283067D01*
X156273500Y-114089543D01*
X156213024Y-113992781D01*
X156158595Y-113944400D01*
X156055785Y-113896019D01*
X154876500Y-114912019D02*
X155457071Y-114912019D01*
X155166785Y-114912019D02*
X155039785Y-113896019D01*
X155154690Y-114041162D01*
X155263547Y-114137924D01*
X155366357Y-114186305D01*
X153878643Y-113896019D02*
X154072166Y-113896019D01*
X154174976Y-113944400D01*
X154229405Y-113992781D01*
X154344309Y-114137924D01*
X154416881Y-114331448D01*
X154465262Y-114718495D01*
X154428976Y-114815257D01*
X154386643Y-114863638D01*
X154295928Y-114912019D01*
X154102405Y-114912019D01*
X153999596Y-114863638D01*
X153945167Y-114815257D01*
X153884691Y-114718495D01*
X153854453Y-114476590D01*
X153890739Y-114379829D01*
X153933072Y-114331448D01*
X154023786Y-114283067D01*
X154217309Y-114283067D01*
X154320119Y-114331448D01*
X154374548Y-114379829D01*
X154435024Y-114476590D01*
X153425071Y-114524971D02*
X152650976Y-114524971D01*
X151895023Y-113896019D02*
X151798262Y-113896019D01*
X151707548Y-113944400D01*
X151665215Y-113992781D01*
X151628929Y-114089543D01*
X151604738Y-114283067D01*
X151634976Y-114524971D01*
X151707548Y-114718495D01*
X151768024Y-114815257D01*
X151822453Y-114863638D01*
X151925262Y-114912019D01*
X152022023Y-114912019D01*
X152112738Y-114863638D01*
X152155071Y-114815257D01*
X152191357Y-114718495D01*
X152215547Y-114524971D01*
X152185309Y-114283067D01*
X152112738Y-114089543D01*
X152052262Y-113992781D01*
X151997833Y-113944400D01*
X151895023Y-113896019D01*
X150727834Y-114234686D02*
X150812500Y-114912019D01*
X150921357Y-113847638D02*
X151253976Y-114573352D01*
X150625024Y-114573352D01*
X150231928Y-114524971D02*
X149457833Y-114524971D01*
X148490214Y-114912019D02*
X149070785Y-114912019D01*
X148780499Y-114912019D02*
X148653499Y-113896019D01*
X148768404Y-114041162D01*
X148877261Y-114137924D01*
X148980071Y-114186305D01*
X147837071Y-114331448D02*
X147927785Y-114283067D01*
X147970119Y-114234686D01*
X148006404Y-114137924D01*
X148000357Y-114089543D01*
X147939881Y-113992781D01*
X147885452Y-113944400D01*
X147782642Y-113896019D01*
X147589119Y-113896019D01*
X147498405Y-113944400D01*
X147456072Y-113992781D01*
X147419786Y-114089543D01*
X147425833Y-114137924D01*
X147486310Y-114234686D01*
X147540738Y-114283067D01*
X147643548Y-114331448D01*
X147837071Y-114331448D01*
X147939881Y-114379829D01*
X147994309Y-114428210D01*
X148054785Y-114524971D01*
X148078976Y-114718495D01*
X148042690Y-114815257D01*
X148000357Y-114863638D01*
X147909642Y-114912019D01*
X147716119Y-114912019D01*
X147613310Y-114863638D01*
X147558881Y-114815257D01*
X147498405Y-114718495D01*
X147474214Y-114524971D01*
X147510500Y-114428210D01*
X147552834Y-114379829D01*
X147643548Y-114331448D01*
D14*
X157383237Y-106659438D02*
X157383237Y-104627438D01*
X156705904Y-106078867D01*
X156028571Y-104627438D01*
X156028571Y-106659438D01*
X155060951Y-106659438D02*
X155060951Y-104627438D01*
X154093332Y-106659438D02*
X154093332Y-104627438D01*
X153609523Y-104627438D01*
X153319237Y-104724200D01*
X153125713Y-104917724D01*
X153028952Y-105111248D01*
X152932190Y-105498295D01*
X152932190Y-105788581D01*
X153028952Y-106175629D01*
X153125713Y-106369152D01*
X153319237Y-106562676D01*
X153609523Y-106659438D01*
X154093332Y-106659438D01*
X152061332Y-106659438D02*
X152061332Y-104627438D01*
X151577523Y-106852962D02*
X150029333Y-106852962D01*
X149545523Y-106659438D02*
X149545523Y-104627438D01*
X148577904Y-106659438D02*
X148577904Y-104627438D01*
X147416762Y-106659438D01*
X147416762Y-104627438D01*
X155399619Y-107777038D02*
X155206095Y-107777038D01*
X155012571Y-107873800D01*
X154915809Y-107970562D01*
X154819047Y-108164086D01*
X154722286Y-108551133D01*
X154722286Y-109034943D01*
X154819047Y-109421990D01*
X154915809Y-109615514D01*
X155012571Y-109712276D01*
X155206095Y-109809038D01*
X155399619Y-109809038D01*
X155593143Y-109712276D01*
X155689905Y-109615514D01*
X155786666Y-109421990D01*
X155883428Y-109034943D01*
X155883428Y-108551133D01*
X155786666Y-108164086D01*
X155689905Y-107970562D01*
X155593143Y-107873800D01*
X155399619Y-107777038D01*
X153851428Y-109615514D02*
X153754667Y-109712276D01*
X153851428Y-109809038D01*
X153948190Y-109712276D01*
X153851428Y-109615514D01*
X153851428Y-109809038D01*
X151819429Y-109809038D02*
X152980571Y-109809038D01*
X152400000Y-109809038D02*
X152400000Y-107777038D01*
X152593524Y-108067324D01*
X152787048Y-108260848D01*
X152980571Y-108357610D01*
X150948571Y-109615514D02*
X150851810Y-109712276D01*
X150948571Y-109809038D01*
X151045333Y-109712276D01*
X150948571Y-109615514D01*
X150948571Y-109809038D01*
X149593905Y-107777038D02*
X149400381Y-107777038D01*
X149206857Y-107873800D01*
X149110095Y-107970562D01*
X149013333Y-108164086D01*
X148916572Y-108551133D01*
X148916572Y-109034943D01*
X149013333Y-109421990D01*
X149110095Y-109615514D01*
X149206857Y-109712276D01*
X149400381Y-109809038D01*
X149593905Y-109809038D01*
X149787429Y-109712276D01*
X149884191Y-109615514D01*
X149980952Y-109421990D01*
X150077714Y-109034943D01*
X150077714Y-108551133D01*
X149980952Y-108164086D01*
X149884191Y-107970562D01*
X149787429Y-107873800D01*
X149593905Y-107777038D01*
D15*
X157407000Y-96162500D03*
D16*
X149907000Y-83662500D03*
D15*
X159907000Y-93662500D03*
X152407000Y-93662500D03*
X144907000Y-93662500D03*
X147407000Y-96162500D03*
D16*
X154907000Y-83662500D03*
D17*
X156210000Y-118110000D03*
D18*
X153670000Y-118110000D03*
X151130000Y-118110000D03*
X148590000Y-118110000D03*
M02*
